Coordinates
version=1
nRows=31
nColumns=38
inDegrees=no

Units are S.I. units (second, meters, Newtons, ...)
If the header above contains a line with 'inDegrees', this indicates whether rotational values are in degrees (yes) or radians (no).

endheader
time	pelvis_tilt	pelvis_list	pelvis_rotation	pelvis_tx	pelvis_ty	pelvis_tz	hip_flexion_r	hip_adduction_r	hip_rotation_r	knee_angle_r	ankle_angle_r	subtalar_angle_r	mtp_angle_r	hip_flexion_l	hip_adduction_l	hip_rotation_l	knee_angle_l	ankle_angle_l	subtalar_angle_l	mtp_angle_l	lumbar_extension	lumbar_bending	lumbar_rotation	arm_flex_r	arm_add_r	arm_rot_r	elbow_flex_r	pro_sup_r	wrist_flex_r	wrist_dev_r	arm_flex_l	arm_add_l	arm_rot_l	elbow_flex_l	pro_sup_l	wrist_flex_l	wrist_dev_l
1.09	-1.12892	1.41096	-0.534817	0.921151	0.575473	0.961359	0.428926	0.143558	-0.0554888	0.488534	0.271669	0	0	-0.140538	-0.0710388	-0.208826	0.227478	0.274853	0	0	-0.234626	0.172983	0.0358404	0.455641	-0.415525	0.197892	1.02562	0.886067	0	0	0.423599	-0.375761	0.188089	0.990702	0.794423	0	0
1.1	-1.13096	1.40762	-0.529583	0.921525	0.563812	0.960055	0.44044	0.146396	-0.0739524	0.464237	0.271297	0	0	-0.158271	-0.0721144	-0.20649	0.222328	0.284493	0	0	-0.235635	0.178939	0.034758	0.453895	-0.417638	0.194949	1.02971	0.885499	0	0	0.425296	-0.373957	0.189098	0.988482	0.7947	0	0
1.11	-1.13731	1.4061	-0.520408	0.921863	0.552046	0.958305	0.453869	0.148406	-0.0896844	0.441415	0.272302	0	0	-0.174755	-0.0718505	-0.204342	0.216725	0.294705	0	0	-0.235044	0.18376	0.0338774	0.451784	-0.4198	0.191033	1.035	0.886862	0	0	0.426651	-0.372646	0.190471	0.987083	0.796813	0	0
1.12	-1.14692	1.4057	-0.507377	0.922256	0.540174	0.956161	0.467623	0.149459	-0.104244	0.417768	0.274485	0	0	-0.190097	-0.0710494	-0.201856	0.211352	0.305486	0	0	-0.233408	0.188205	0.0318386	0.45018	-0.421985	0.18705	1.04098	0.89165	0	0	0.4272	-0.371626	0.190127	0.986926	0.805421	0	0
1.13	-1.15703	1.40621	-0.492739	0.922734	0.528166	0.953677	0.480398	0.149116	-0.119481	0.391765	0.277201	0	0	-0.204877	-0.0697104	-0.198898	0.205798	0.316159	0	0	-0.23114	0.192239	0.0277478	0.449494	-0.424275	0.185216	1.04702	0.891638	0	0	0.426587	-0.372036	0.190611	0.989645	0.800843	0	0
1.14	-1.16625	1.4076	-0.477682	0.923302	0.516	0.950912	0.490684	0.147468	-0.134604	0.361135	0.279055	0	0	-0.219227	-0.0676834	-0.194905	0.200245	0.326544	0	0	-0.228338	0.195628	0.0216475	0.44919	-0.426347	0.184414	1.05249	0.892817	0	0	0.42506	-0.372504	0.188806	0.993556	0.799844	0	0
1.15	-1.16687	1.40816	-0.468561	0.924064	0.503619	0.94812	0.494678	0.145374	-0.150332	0.322331	0.278245	0	0	-0.235662	-0.0663239	-0.187755	0.193979	0.3361	0	0	-0.226837	0.199634	0.0130797	0.448588	-0.428664	0.18431	1.05825	0.893137	0	0	0.42354	-0.372852	0.186421	0.998288	0.794454	0	0
1.16	-1.16426	1.40953	-0.461311	0.924875	0.490999	0.945177	0.494943	0.142361	-0.164863	0.27808	0.274915	0	0	-0.252711	-0.064352	-0.179122	0.186812	0.344919	0	0	-0.224649	0.20282	0.0032274	0.447584	-0.430032	0.182899	1.0631	0.894037	0	0	0.422398	-0.372872	0.184287	1.00216	0.793947	0	0
1.17	-1.1588	1.41124	-0.456141	0.925635	0.478059	0.942153	0.49169	0.139386	-0.17826	0.229911	0.268488	0	0	-0.271308	-0.0622161	-0.169888	0.177553	0.352468	0	0	-0.22175	0.205614	-0.00740304	0.446665	-0.430113	0.180355	1.06617	0.897235	0	0	0.42106	-0.373402	0.183245	1.00484	0.797726	0	0
1.18	-1.15041	1.4135	-0.453491	0.926359	0.46479	0.939047	0.485736	0.136327	-0.190608	0.180168	0.259281	0	0	-0.291553	-0.0596622	-0.160256	0.165904	0.358092	0	0	-0.218119	0.207869	-0.018862	0.445861	-0.42919	0.177475	1.06834	0.901633	0	0	0.419418	-0.373752	0.182301	1.00592	0.800627	0	0
1.19	-1.14011	1.41654	-0.452726	0.927093	0.451204	0.935842	0.478422	0.132717	-0.202432	0.13218	0.247802	0	0	-0.31255	-0.0566894	-0.15111	0.153358	0.362354	0	0	-0.213583	0.20948	-0.0311802	0.445676	-0.427433	0.175625	1.0688	0.9074	0	0	0.416657	-0.373649	0.180593	1.00628	0.80559	0	0
1.2	-1.12916	1.42037	-0.453084	0.927822	0.437349	0.932567	0.471908	0.128256	-0.215082	0.0913773	0.236027	0	0	-0.333306	-0.0536126	-0.143355	0.141831	0.366101	0	0	-0.208246	0.210418	-0.0436783	0.445643	-0.425343	0.174981	1.06769	0.914034	0	0	0.412698	-0.372263	0.175693	1.0056	0.823783	0	0
1.21	-1.11354	1.42412	-0.458226	0.928584	0.423313	0.92935	0.466328	0.123116	-0.229417	0.0615046	0.22604	0	0	-0.35379	-0.0513633	-0.136686	0.13324	0.369796	0	0	-0.203542	0.21111	-0.0560026	0.445067	-0.423436	0.17372	1.06641	0.923752	0	0	0.408362	-0.372064	0.176074	1.00745	0.804729	0	0
1.22	-1.10224	1.42905	-0.460171	0.929255	0.409127	0.926058	0.466488	0.116285	-0.246772	0.0503324	0.223824	0	0	-0.37097	-0.0492967	-0.132273	0.130005	0.374454	0	0	-0.197868	0.210656	-0.0670105	0.443389	-0.421544	0.171645	1.06569	0.929016	0	0	0.403683	-0.369949	0.172027	1.00759	0.806981	0	0
1.23	-1.08745	1.43367	-0.46595	0.929823	0.394833	0.922864	0.469155	0.108743	-0.263454	0.0548991	0.227213	0	0	-0.386084	-0.0485274	-0.128764	0.132822	0.380031	0	0	-0.193297	0.209889	-0.0769883	0.441231	-0.42028	0.170318	1.06618	0.924942	0	0	0.399885	-0.367686	0.168605	1.00715	0.80831	0	0
1.24	-1.08528	1.43861	-0.461772	0.92918	0.380399	0.919446	0.472679	0.100293	-0.266797	0.0684118	0.231804	0	0	-0.394816	-0.0506475	-0.133269	0.146941	0.390564	0	0	-0.187551	0.206979	-0.0836078	0.43729	-0.41605	0.165133	1.06548	0.930178	0	0	0.396945	-0.368255	0.168058	1.00754	0.808252	0	0
1.25	-1.046	1.44237	-0.485324	0.931199	0.366022	0.91682	0.481858	0.0874385	-0.294945	0.111096	0.245442	0	0	-0.402566	-0.0527238	-0.126527	0.170419	0.400217	0	0	-0.186869	0.208323	-0.0988604	0.436402	-0.41728	0.162852	1.06668	0.936792	0	0	0.395583	-0.363186	0.164558	1.00495	0.810397	0	0
1.26	-1.03891	1.4473	-0.483008	0.930826	0.351069	0.913575	0.490113	0.0739204	-0.304872	0.155347	0.257418	0	0	-0.402159	-0.0580925	-0.132422	0.20508	0.413879	0	0	-0.181344	0.205724	-0.107497	0.431088	-0.414699	0.157843	1.06774	0.941885	0	0	0.392966	-0.363831	0.165847	1.00529	0.810755	0	0
1.27	-0.99935	1.4513	-0.504629	0.93295	0.335923	0.91103	0.493628	0.0621966	-0.300204	0.202264	0.266965	0	0	-0.400655	-0.0631503	-0.126607	0.247862	0.424185	0	0	-0.17898	0.207464	-0.124271	0.427696	-0.418495	0.156712	1.0724	0.947824	0	0	0.390644	-0.359167	0.164234	1.00292	0.810954	0	0
1.28	-1.01167	1.45772	-0.48207	0.932578	0.320046	0.907572	0.504246	0.046653	-0.31663	0.25717	0.288581	0	0	-0.386844	-0.0726039	-0.140414	0.306929	0.439315	0	0	-0.168588	0.2053	-0.132925	0.418449	-0.419948	0.155764	1.07803	0.944571	0	0	0.386865	-0.358764	0.16444	1.00066	0.831546	0	0
1.29	-0.981495	1.45958	-0.502098	0.932774	0.304356	0.905225	0.50021	0.0423532	-0.30761	0.281773	0.282081	0	0	-0.379226	-0.0831176	-0.147226	0.364333	0.441764	0	0	-0.167096	0.206896	-0.13914	0.411964	-0.424577	0.155614	1.08314	0.946772	0	0	0.387071	-0.356787	0.169733	0.996683	0.824163	0	0
1.3	-0.963127	1.46169	-0.514957	0.932931	0.289724	0.903424	0.503693	0.0446937	-0.281719	0.301332	0.236768	0	0	-0.362479	-0.0944145	-0.157663	0.435568	0.439147	0	0	-0.168779	0.21006	-0.139233	0.409239	-0.431271	0.156832	1.08743	0.94681	0	0	0.390877	-0.352403	0.175133	0.990869	0.818615	0	0
1.31	-1.01514	1.46169	-0.471875	0.930229	0.275703	0.901929	0.520015	0.0445825	-0.291356	0.334833	0.174057	0	0	-0.334807	-0.11317	-0.184452	0.518588	0.427834	0	0	-0.170404	0.214448	-0.124924	0.408573	-0.433704	0.158692	1.08765	0.944455	0	0	0.393653	-0.35097	0.179181	0.989396	0.813243	0	0
1.32	-1.07843	1.46531	-0.41984	0.929198	0.262767	0.901482	0.549778	0.049977	-0.255592	0.390893	0.122914	0	0	-0.29814	-0.12495	-0.198417	0.606038	0.397909	0	0	-0.173684	0.218907	-0.111785	0.416233	-0.439493	0.169953	1.08567	0.937285	0	0	0.393759	-0.345946	0.174973	0.991259	0.807394	0	0
1.33	-1.16992	1.46911	-0.342732	0.926967	0.249061	0.900893	0.583074	0.0406718	-0.273676	0.46477	0.114392	0	0	-0.256595	-0.139677	-0.213444	0.697532	0.356492	0	0	-0.172662	0.220075	-0.0991142	0.423914	-0.443319	0.190022	1.08035	0.914567	0	0	0.388714	-0.346931	0.170418	1.00014	0.798206	0	0
1.34	-1.16573	1.47117	-0.353454	0.926502	0.235545	0.901477	0.599265	0.0445355	-0.235001	0.522643	0.107313	0	0	-0.223881	-0.149157	-0.20955	0.782342	0.304187	0	0	-0.181845	0.221508	-0.0944609	0.434794	-0.447979	0.207515	1.07404	0.907551	0	0	0.387914	-0.347473	0.166751	1.00606	0.801707	0	0
1.35	-1.12621	1.47038	-0.393212	0.925951	0.22181	0.902342	0.600948	0.0379989	-0.237926	0.56542	0.0978497	0	0	-0.201503	-0.156425	-0.161761	0.846873	0.257956	0	0	-0.193456	0.223627	-0.094578	0.442817	-0.451133	0.220404	1.06905	0.897662	0	0	0.390292	-0.349076	0.163563	1.00723	0.836795	0	0
1.36	-1.05555	1.46325	-0.45673	0.925921	0.208294	0.903739	0.586192	0.0306817	-0.259755	0.587718	0.0816915	0	0	-0.174938	-0.171629	-0.142956	0.926703	0.210906	0	0	-0.210345	0.231366	-0.0982648	0.446291	-0.449975	0.210639	1.0693	0.902413	0	0	0.396266	-0.35033	0.165864	1.00707	0.854776	0	0
1.37	-1.06542	1.46091	-0.453975	0.924249	0.194834	0.904163	0.578224	0.0339334	-0.263627	0.598516	0.0582753	0	0	-0.135689	-0.187807	-0.170933	1.01537	0.161368	0	0	-0.217203	0.235001	-0.0883687	0.448767	-0.457545	0.225814	1.07241	0.899232	0	0	0.399954	-0.35185	0.173239	1.00478	0.839863	0	0
1.38	-1.05463	1.46146	-0.467453	0.922914	0.182009	0.905071	0.56588	0.0309555	-0.276383	0.602372	0.0368441	0	0	-0.110076	-0.187533	-0.125619	1.06481	0.139613	0	0	-0.225252	0.23506	-0.0817199	0.448333	-0.459878	0.226406	1.07746	0.888427	0	0	0.4046	-0.353965	0.183618	1.00589	0.793517	0	0
1.39	-1.04701	1.4601	-0.482874	0.921053	0.168908	0.906238	0.549745	0.0349278	-0.284397	0.599934	0.0170721	0	0	-0.0774914	-0.197575	-0.150966	1.13342	0.128712	0	0	-0.23391	0.235889	-0.0699768	0.446572	-0.460057	0.221012	1.08091	0.89083	0	0	0.40626	-0.351552	0.180123	1.006	0.799488	0	0
